<?xml version="1.0" encoding="utf-8" standalone="yes"?>
<!DOCTYPE svg PUBLIC "-//W3C//DTD SVG 1.1//EN" "http://www.w3.org/Graphics/SVG/1.1/DTD/svg11.dtd">
<svg width="792" height="774" viewBox="0 0 792 774" style="fill:none;stroke:none;fill-rule:evenodd;clip-rule:evenodd;stroke-linecap:round;stroke-linejoin:round;stroke-miterlimit:1.5;" version="1.1" xmlns="http://www.w3.org/2000/svg" xmlns:xlink="http://www.w3.org/1999/xlink"><style class="text-font-style fontImports" data-font-family="Roboto">@import url('https://fonts.googleapis.com/css2?family=Roboto:wght@400;700&amp;display=block');</style><g id="items" style="isolation: isolate"><g id="blend" style="mix-blend-mode: normal"><g id="g-root-cp_0_g-0_v6qa17lpf7k4-fill" data-item-order="-473174" transform="translate(259.45001220703125, 259.4599609375)"><g id="cp_0_g-0_v6qa17lpf7k4-fill" stroke="none" fill="#666666"><g><path d="M 263.1 136.54L 242.98 122.36L 242.98 130.52L 208.2 130.52C 206.93 115.19 200.85 101.22 191.47 90.13L 216.06 65.54L 221.83 71.31L 226.03 47.06L 201.78 51.26L 207.55 57.03C 207.55 57.03 202.55 62.03 196.64 67.94C 191.97 72.61 186.73 77.85 182.95 81.63C 171.86 72.25 157.9 66.18 142.56 64.9L 142.56 30.12L 150.72 30.12L 136.54 10L 122.36 30.12L 130.52 30.12L 130.52 64.9C 115.19 66.17 101.22 72.25 90.13 81.63L 65.54 57.04L 71.31 51.27L 47.06 47.07L 51.26 71.32L 57.03 65.55C 57.03 65.55 62.03 70.55 67.94 76.46C 72.61 81.13 77.85 86.37 81.63 90.15C 72.25 101.24 66.18 115.2 64.9 130.54L 30.12 130.54L 30.12 122.38L 10 136.56L 30.12 150.74L 30.12 142.58L 64.9 142.58C 66.17 157.91 72.25 171.88 81.63 182.97L 57.04 207.56L 51.27 201.79L 47.07 226.04L 71.32 221.84L 65.55 216.07C 65.55 216.07 70.55 211.07 76.46 205.16C 81.13 200.49 86.37 195.25 90.15 191.47C 101.24 200.85 115.2 206.92 130.54 208.2L 130.54 242.98L 122.38 242.98L 136.56 263.1L 150.74 242.98L 142.58 242.98L 142.58 208.2C 157.91 206.93 171.88 200.85 182.97 191.47L 207.56 216.06L 201.79 221.83L 226.04 226.03L 221.84 201.78L 216.07 207.55C 216.07 207.55 211.07 202.55 205.16 196.64C 200.49 191.97 195.25 186.73 191.47 182.95C 200.85 171.86 206.92 157.9 208.2 142.56L 242.98 142.56L 242.98 150.72L 263.1 136.54Z"></path></g></g></g><g id="g-root-cp_1_g-1_mb39sblpf8cu-fill" data-item-order="-473170" transform="translate(354.739990234375, 180.820068359375)"><g id="cp_1_g-1_mb39sblpf8cu-fill" stroke="none" fill="#3cc583"><g><path d="M 72.52 41.26C 72.52 58.5244 58.5244 72.52 41.26 72.52C 23.9956 72.52 10 58.5244 10 41.26C 10 23.9956 23.9956 10 41.26 10C 58.5244 10 72.52 23.9956 72.52 41.26Z"></path></g></g></g><g id="g-root-cp_2_g-2_hv9rnvlpf954-fill" data-item-order="-473166" transform="translate(477.719970703125, 231.7589111328125)"><g id="cp_2_g-2_hv9rnvlpf954-fill" stroke="none" fill="#1eabda"><g><path d="M 72.52 41.26C 72.52 58.5244 58.5244 72.52 41.26 72.52C 23.9956 72.52 10 58.5244 10 41.26C 10 23.9956 23.9956 10 41.26 10C 58.5244 10 72.52 23.9956 72.52 41.26Z"></path></g></g></g><g id="g-root-cp_3_g-3_dfg9jflpf9xe-fill" data-item-order="-473162" transform="translate(528.6600341796875, 354.739990234375)"><g id="cp_3_g-3_dfg9jflpf9xe-fill" stroke="none" fill="#e0cb15"><g><path d="M 72.52 41.26C 72.52 58.5244 58.5244 72.52 41.26 72.52C 23.9956 72.52 10 58.5244 10 41.26C 10 23.9956 23.9956 10 41.26 10C 58.5244 10 72.52 23.9956 72.52 41.26Z"></path></g></g></g><g id="g-root-cp_4_g-4_4kfqdnlpf7kc-fill" data-item-order="-473158" transform="translate(477.719970703125, 477.719970703125)"><g id="cp_4_g-4_4kfqdnlpf7kc-fill" stroke="none" fill="#92bd39"><g><path d="M 72.52 41.26C 72.52 58.5244 58.5244 72.52 41.26 72.52C 23.9956 72.52 10 58.5244 10 41.26C 10 23.9956 23.9956 10 41.26 10C 58.5244 10 72.52 23.9956 72.52 41.26Z"></path></g></g></g><g id="g-root-cp_5_g-5_4m897lpf8cm-fill" data-item-order="-473154" transform="translate(354.739990234375, 528.659912109375)"><g id="cp_5_g-5_4m897lpf8cm-fill" stroke="none" fill="#de8431"><g><path d="M 72.52 41.26C 72.52 58.5244 58.5244 72.52 41.26 72.52C 23.9956 72.52 10 58.5244 10 41.26C 10 23.9956 23.9956 10 41.26 10C 58.5244 10 72.52 23.9956 72.52 41.26Z"></path></g></g></g><g id="g-root-cp_6_g-6_1upws3vlpf8xs-fill" data-item-order="-473150" transform="translate(231.760009765625, 477.719970703125)"><g id="cp_6_g-6_1upws3vlpf8xs-fill" stroke="none" fill="#e55753"><g><path d="M 72.52 41.26C 72.52 58.5244 58.5244 72.52 41.26 72.52C 23.9956 72.52 10 58.5244 10 41.26C 10 23.9956 23.9956 10 41.26 10C 58.5244 10 72.52 23.9956 72.52 41.26Z"></path></g></g></g><g id="g-root-cp_7_g-7_1lu9ruzlpf9qi-fill" data-item-order="-473146" transform="translate(180.82000732421875, 354.739990234375)"><g id="cp_7_g-7_1lu9ruzlpf9qi-fill" stroke="none" fill="#de58a9"><g><path d="M 72.52 41.26C 72.52 58.5244 58.5244 72.52 41.26 72.52C 23.9956 72.52 10 58.5244 10 41.26C 10 23.9956 23.9956 10 41.26 10C 58.5244 10 72.52 23.9956 72.52 41.26Z"></path></g></g></g><g id="g-root-cp_8_g-8_1hf2qtnlpf7d0-fill" data-item-order="-473142" transform="translate(231.760009765625, 231.7589111328125)"><g id="cp_8_g-8_1hf2qtnlpf7d0-fill" stroke="none" fill="#7f64ea"><g><path d="M 72.52 41.26C 72.52 58.5244 58.5244 72.52 41.26 72.52C 23.9956 72.52 10 58.5244 10 41.26C 10 23.9956 23.9956 10 41.26 10C 58.5244 10 72.52 23.9956 72.52 41.26Z"></path></g></g></g><g id="g-root-ic_micr_1uuwksrlpgmir-fill" data-item-order="0" transform="translate(491, 245)"></g><g id="g-root-ic_glob_8widzflpjf9c-fill" data-item-order="0" transform="translate(245, 245)"></g><g id="g-root-tx_gestiond_1448pjflpkwlp-fill" data-item-order="0" transform="translate(50, 359)"><g id="tx_gestiond_1448pjflpkwlp-fill" stroke="none" fill="#de58a9"><g><text style="font: bold 11.7px &quot;Roboto&quot;, sans-serif; white-space: pre;" font-weight="bold" font-size="11.7px" font-family="'Roboto', sans-serif"><tspan x="53.64" y="28" dominant-baseline="ideographic">Gestion des </tspan><tspan x="14.55" y="42" dominant-baseline="ideographic">extensions Outlook</tspan></text></g></g></g><g id="g-root-tx_migratio_dgp7pnlpjh1n-fill" data-item-order="0" transform="translate(554, 182)"><g id="tx_migratio_dgp7pnlpjh1n-fill" stroke="none" fill="#1eabda"><g><text style="font: bold 11.7px &quot;Roboto&quot;, sans-serif; white-space: pre;" font-weight="bold" font-size="11.7px" font-family="'Roboto', sans-serif"><tspan x="12" y="27" dominant-baseline="ideographic">Migration vers </tspan><tspan x="12" y="41" dominant-baseline="ideographic">Windows </tspan><tspan x="12" y="55" dominant-baseline="ideographic">Entreprise</tspan></text></g></g></g><g id="g-root-ic_moni_1hdtvt7lozt36-fill" data-item-order="0" transform="translate(350, 349.9959716796875)"></g><g id="g-root-ic_1_6hnijlpf7d3-fill" data-item-order="0" transform="translate(368, 194)"></g><g id="g-root-ic_outl_1lz9kjvlpi0pb-fill" data-item-order="0" transform="translate(194, 367)"></g><g id="g-root-ic_1_dcbw3vlpi138-fill" data-item-order="0" transform="translate(542, 368)"></g><g id="g-root-tx_gestiond_1hckuh7lpkum9-fill" data-item-order="0" transform="translate(350, 614)"><g id="tx_gestiond_1hckuh7lpkum9-fill" stroke="none" fill="#de8431"><g><text style="font: bold 11.7px &quot;Roboto&quot;, sans-serif; white-space: pre;" font-weight="bold" font-size="11.7px" font-family="'Roboto', sans-serif"><tspan x="16.59" y="28" dominant-baseline="ideographic">Gestion de </tspan><tspan x="16.16" y="42" dominant-baseline="ideographic">l'inventaire</tspan></text></g></g></g><g id="g-root-tx_dveloppe_qva3ijlpku13-fill" data-item-order="0" transform="translate(122, 194)"><g id="tx_dveloppe_qva3ijlpku13-fill" stroke="none" fill="#7f64ea"><g><text style="font: bold 11.7px &quot;Roboto&quot;, sans-serif; white-space: pre;" font-weight="bold" font-size="11.7px" font-family="'Roboto', sans-serif"><tspan x="21.82" y="28" dominant-baseline="ideographic">Développement </tspan><tspan x="81.04" y="42" dominant-baseline="ideographic">Web</tspan></text></g></g></g><g id="g-root-tx_gestiond_1cwrccrlpjh8p-fill" data-item-order="0" transform="translate(338, 98)"><g id="tx_gestiond_1cwrccrlpjh8p-fill" stroke="none" fill="#3cc583"><g><text style="font: bold 11.7px &quot;Roboto&quot;, sans-serif; white-space: pre;" font-weight="bold" font-size="11.7px" font-family="'Roboto', sans-serif"><tspan x="26.82" y="28" dominant-baseline="ideographic">Gestion des </tspan><tspan x="17.21" y="42" dominant-baseline="ideographic">appareils Apple</tspan></text></g></g></g><g id="g-root-ic_5_5v6fflpi22u-fill" data-item-order="0" transform="translate(245, 491)"></g><g id="g-root-ic_book_3zr63lpi32l-fill" data-item-order="0" transform="translate(491, 491)"></g><g id="g-root-tx_renforce_1ltnarvlpkw03-fill" data-item-order="0" transform="translate(110, 522)"><g id="tx_renforce_1ltnarvlpkw03-fill" stroke="none" fill="#e55753"><g><text style="font: bold 11.7px &quot;Roboto&quot;, sans-serif; white-space: pre;" font-weight="bold" font-size="11.7px" font-family="'Roboto', sans-serif"><tspan x="13.19" y="28" dominant-baseline="ideographic">Renforcement de la </tspan><tspan x="73.35" y="42" dominant-baseline="ideographic">sécurité</tspan></text></g></g></g><g id="g-root-tx_amliorat_143m8gblpf8xy-fill" data-item-order="0" transform="translate(332, 38)"><g id="tx_amliorat_143m8gblpf8xy-fill" stroke="none" fill="#484848"><g><text style="font: bold 25px &quot;Roboto&quot;, sans-serif; white-space: pre;" font-weight="bold" font-size="25px" font-family="'Roboto', sans-serif"><tspan x="15.04" y="43" dominant-baseline="ideographic">RESUME</tspan></text></g></g></g><g id="g-root-tx_supporte_8wnflpkwlr-fill" data-item-order="0" transform="translate(554, 522)"><g id="tx_supporte_8wnflpkwlr-fill" stroke="none" fill="#92bd39"><g><text style="font: bold 11.7px &quot;Roboto&quot;, sans-serif; white-space: pre;" font-weight="bold" font-size="11.7px" font-family="'Roboto', sans-serif"><tspan x="12" y="28" dominant-baseline="ideographic">Support et </tspan><tspan x="12" y="42" dominant-baseline="ideographic">documentation IT</tspan></text></g></g></g><g id="g-root-ic_onli_hrj0azlozrbd-fill" data-item-order="0" transform="translate(368, 542)"></g><g id="g-root-tx_personna_hzn39nlpjhfp-fill" data-item-order="0" transform="translate(614, 359)"><g id="tx_personna_hzn39nlpjhfp-fill" stroke="none" fill="#e0cb15"><g><text style="font: bold 11.7px &quot;Roboto&quot;, sans-serif; white-space: pre;" font-weight="bold" font-size="11.7px" font-family="'Roboto', sans-serif"><tspan x="12" y="28" dominant-baseline="ideographic">Personnalisation et </tspan><tspan x="12" y="42" dominant-baseline="ideographic">ergonomie</tspan></text></g></g></g><g id="g-root-cp_0_g-0_v6qa17lpf7k4-stroke" data-item-order="-473174" transform="translate(259.45001220703125, 259.4599609375)"><g id="cp_0_g-0_v6qa17lpf7k4-stroke" fill="none" stroke-linecap="round" stroke-linejoin="round" stroke-miterlimit="4" stroke="#ffffff" stroke-width="2"><g><path d="M 263.1 136.54L 242.98 122.36L 242.98 130.52L 208.2 130.52C 206.93 115.19 200.85 101.22 191.47 90.13L 216.06 65.54L 221.83 71.31L 226.03 47.06L 201.78 51.26L 207.55 57.03C 207.55 57.03 202.55 62.03 196.64 67.94C 191.97 72.61 186.73 77.85 182.95 81.63C 171.86 72.25 157.9 66.18 142.56 64.9L 142.56 30.12L 150.72 30.12L 136.54 10L 122.36 30.12L 130.52 30.12L 130.52 64.9C 115.19 66.17 101.22 72.25 90.13 81.63L 65.54 57.04L 71.31 51.27L 47.06 47.07L 51.26 71.32L 57.03 65.55C 57.03 65.55 62.03 70.55 67.94 76.46C 72.61 81.13 77.85 86.37 81.63 90.15C 72.25 101.24 66.18 115.2 64.9 130.54L 30.12 130.54L 30.12 122.38L 10 136.56L 30.12 150.74L 30.12 142.58L 64.9 142.58C 66.17 157.91 72.25 171.88 81.63 182.97L 57.04 207.56L 51.27 201.79L 47.07 226.04L 71.32 221.84L 65.55 216.07C 65.55 216.07 70.55 211.07 76.46 205.16C 81.13 200.49 86.37 195.25 90.15 191.47C 101.24 200.85 115.2 206.92 130.54 208.2L 130.54 242.98L 122.38 242.98L 136.56 263.1L 150.74 242.98L 142.58 242.98L 142.58 208.2C 157.91 206.93 171.88 200.85 182.97 191.47L 207.56 216.06L 201.79 221.83L 226.04 226.03L 221.84 201.78L 216.07 207.55C 216.07 207.55 211.07 202.55 205.16 196.64C 200.49 191.97 195.25 186.73 191.47 182.95C 200.85 171.86 206.92 157.9 208.2 142.56L 242.98 142.56L 242.98 150.72L 263.1 136.54Z"></path></g></g></g><g id="g-root-cp_1_g-1_mb39sblpf8cu-stroke" data-item-order="-473170" transform="translate(354.739990234375, 180.820068359375)"><g id="cp_1_g-1_mb39sblpf8cu-stroke" fill="none" stroke-linecap="round" stroke-linejoin="round" stroke-miterlimit="4" stroke="#ffffff" stroke-width="2"><g><path d="M 72.52 41.26C 72.52 58.5244 58.5244 72.52 41.26 72.52C 23.9956 72.52 10 58.5244 10 41.26C 10 23.9956 23.9956 10 41.26 10C 58.5244 10 72.52 23.9956 72.52 41.26Z"></path></g></g></g><g id="g-root-cp_2_g-2_hv9rnvlpf954-stroke" data-item-order="-473166" transform="translate(477.719970703125, 231.7589111328125)"><g id="cp_2_g-2_hv9rnvlpf954-stroke" fill="none" stroke-linecap="round" stroke-linejoin="round" stroke-miterlimit="4" stroke="#ffffff" stroke-width="2"><g><path d="M 72.52 41.26C 72.52 58.5244 58.5244 72.52 41.26 72.52C 23.9956 72.52 10 58.5244 10 41.26C 10 23.9956 23.9956 10 41.26 10C 58.5244 10 72.52 23.9956 72.52 41.26Z"></path></g></g></g><g id="g-root-cp_3_g-3_dfg9jflpf9xe-stroke" data-item-order="-473162" transform="translate(528.6600341796875, 354.739990234375)"><g id="cp_3_g-3_dfg9jflpf9xe-stroke" fill="none" stroke-linecap="round" stroke-linejoin="round" stroke-miterlimit="4" stroke="#ffffff" stroke-width="2"><g><path d="M 72.52 41.26C 72.52 58.5244 58.5244 72.52 41.26 72.52C 23.9956 72.52 10 58.5244 10 41.26C 10 23.9956 23.9956 10 41.26 10C 58.5244 10 72.52 23.9956 72.52 41.26Z"></path></g></g></g><g id="g-root-cp_4_g-4_4kfqdnlpf7kc-stroke" data-item-order="-473158" transform="translate(477.719970703125, 477.719970703125)"><g id="cp_4_g-4_4kfqdnlpf7kc-stroke" fill="none" stroke-linecap="round" stroke-linejoin="round" stroke-miterlimit="4" stroke="#ffffff" stroke-width="2"><g><path d="M 72.52 41.26C 72.52 58.5244 58.5244 72.52 41.26 72.52C 23.9956 72.52 10 58.5244 10 41.26C 10 23.9956 23.9956 10 41.26 10C 58.5244 10 72.52 23.9956 72.52 41.26Z"></path></g></g></g><g id="g-root-cp_5_g-5_4m897lpf8cm-stroke" data-item-order="-473154" transform="translate(354.739990234375, 528.659912109375)"><g id="cp_5_g-5_4m897lpf8cm-stroke" fill="none" stroke-linecap="round" stroke-linejoin="round" stroke-miterlimit="4" stroke="#ffffff" stroke-width="2"><g><path d="M 72.52 41.26C 72.52 58.5244 58.5244 72.52 41.26 72.52C 23.9956 72.52 10 58.5244 10 41.26C 10 23.9956 23.9956 10 41.26 10C 58.5244 10 72.52 23.9956 72.52 41.26Z"></path></g></g></g><g id="g-root-cp_6_g-6_1upws3vlpf8xs-stroke" data-item-order="-473150" transform="translate(231.760009765625, 477.719970703125)"><g id="cp_6_g-6_1upws3vlpf8xs-stroke" fill="none" stroke-linecap="round" stroke-linejoin="round" stroke-miterlimit="4" stroke="#ffffff" stroke-width="2"><g><path d="M 72.52 41.26C 72.52 58.5244 58.5244 72.52 41.26 72.52C 23.9956 72.52 10 58.5244 10 41.26C 10 23.9956 23.9956 10 41.26 10C 58.5244 10 72.52 23.9956 72.52 41.26Z"></path></g></g></g><g id="g-root-cp_7_g-7_1lu9ruzlpf9qi-stroke" data-item-order="-473146" transform="translate(180.82000732421875, 354.739990234375)"><g id="cp_7_g-7_1lu9ruzlpf9qi-stroke" fill="none" stroke-linecap="round" stroke-linejoin="round" stroke-miterlimit="4" stroke="#ffffff" stroke-width="2"><g><path d="M 72.52 41.26C 72.52 58.5244 58.5244 72.52 41.26 72.52C 23.9956 72.52 10 58.5244 10 41.26C 10 23.9956 23.9956 10 41.26 10C 58.5244 10 72.52 23.9956 72.52 41.26Z"></path></g></g></g><g id="g-root-cp_8_g-8_1hf2qtnlpf7d0-stroke" data-item-order="-473142" transform="translate(231.760009765625, 231.7589111328125)"><g id="cp_8_g-8_1hf2qtnlpf7d0-stroke" fill="none" stroke-linecap="round" stroke-linejoin="round" stroke-miterlimit="4" stroke="#ffffff" stroke-width="2"><g><path d="M 72.52 41.26C 72.52 58.5244 58.5244 72.52 41.26 72.52C 23.9956 72.52 10 58.5244 10 41.26C 10 23.9956 23.9956 10 41.26 10C 58.5244 10 72.52 23.9956 72.52 41.26Z"></path></g></g></g><g id="g-root-ic_micr_1uuwksrlpgmir-stroke" data-item-order="0" transform="translate(491, 245)"><g id="ic_micr_1uuwksrlpgmir-stroke" fill="none" stroke-linecap="round" stroke-linejoin="round" stroke-miterlimit="4" stroke="#ffffff" stroke-width="2"><g><path d="M 32.231499 43.75C 30.018614 43.482658 27.891207 42.733589 25.999001 41.5555L 29.044001 30.982C 30.930492 32.437634 33.262131 33.196476 35.643997 33.129997C 37.614845 33.098347 39.565453 32.726898 41.41 32.031998L 38.474499 42.292C 36.507912 43.181877 34.385826 43.677235 32.2285 43.75M 22.556499 40.429001C 20.810217 39.095848 18.685492 38.352062 16.489 38.305C 14.510384 38.36834 12.562242 38.81031 10.75 39.607002L 13.804 29.017C 15.720955 28.194288 17.769848 27.721819 19.8535 27.621998C 21.962698 27.716961 23.999466 28.419674 25.7185 29.6455C 25.313499 31.030001 23.183498 38.303497 22.556499 40.429001ZM 29.398001 14.629L 29.398001 14.6365C 28.771 16.7845 26.912498 23.149 26.2885 25.267C 24.596542 23.979475 22.548164 23.246038 20.4235 23.167C 18.378532 23.243504 16.367422 23.713051 14.5 24.549999L 17.511999 13.984C 19.309626 13.192786 21.238026 12.740691 23.200001 12.6505C 25.420256 12.657228 27.584484 13.348085 29.398001 14.629ZM 36.337002 28.75C 33.991985 28.738512 31.704359 28.023693 29.769999 26.697998L 29.737 26.675499L 32.8255 16C 34.693249 17.439363 36.991123 18.208139 39.348999 18.182501C 41.388451 18.147552 43.398216 17.687769 45.249996 16.8325L 42.206501 27.316L 42.191502 27.325001L 42.191502 27.338501C 40.37043 28.236786 38.37188 28.717461 36.341499 28.745501"></path></g></g></g><g id="g-root-ic_glob_8widzflpjf9c-stroke" data-item-order="0" transform="translate(245, 245)"><g id="ic_glob_8widzflpjf9c-stroke" fill="none" stroke-linecap="round" stroke-linejoin="round" stroke-miterlimit="4" stroke="#ffffff" stroke-width="2"><g><path d="M 15.9145 33.855999C 15.91248 40.169212 21.029785 45.288155 27.342999 45.288155C 33.656212 45.288155 38.773518 40.169212 38.7715 33.855999C 38.773518 27.542786 33.656212 22.423843 27.342999 22.423843C 21.029785 22.423843 15.91248 27.542786 15.914499 33.855999M 33.099998 33.849998C 33.099998 42.230499 27.3505 45.2785 27.3505 45.2785C 27.3505 45.2785 21.5935 42.2365 21.5935 33.849998C 21.5935 25.463501 27.343 22.42 27.343 22.42C 27.343 22.42 33.099998 25.473999 33.099998 33.849998ZM 17.438499 28.360001L 37.247501 28.360001M 15.9145 33.855999L 38.7715 33.855999M 17.438499 39.352001L 37.247501 39.352001M 12.8665 28.946499C 11.1715 23.584 12.8665 19.294001 15.4075 17.150501C 16.255001 21.438999 17.950001 22.511499 17.950001 22.511499C 20.359118 21.270033 22.403248 19.422356 23.881001 17.150499C 24.890673 15.165387 25.189272 12.894127 24.727001 10.7155C 28.032175 10.878742 31.112444 12.438233 33.2005 15.0055C 36.589001 19.294001 36.589001 22.505501 36.589001 22.505501C 39.266464 21.695732 41.441853 19.731613 42.52 17.150499C 45.07 23.584 43.3675 28.946499 41.672501 31.09M 27.343 22.426001L 27.343 45.2845"></path></g></g></g><g id="g-root-tx_gestiond_1448pjflpkwlp-stroke" data-item-order="0" transform="translate(50, 359)"></g><g id="g-root-tx_migratio_dgp7pnlpjh1n-stroke" data-item-order="0" transform="translate(554, 182)"></g><g id="g-root-ic_moni_1hdtvt7lozt36-stroke" data-item-order="0" transform="translate(350, 349.9959716796875)"><g id="ic_moni_1hdtvt7lozt36-stroke" fill="none" stroke-linecap="round" stroke-linejoin="round" stroke-miterlimit="4" stroke="#ffffff" stroke-width="2"><g><path d="M 45.25 42.939999L 58.75 29.440001M 60.52 18.67C 59.38588 19.79739 58.748734 21.330866 58.75 22.93L 58.75 29.440001L 66.760002 29.440001C 68.359131 29.441267 69.892609 28.804117 71.020004 27.67L 78.25 20.440001L 67.75 20.440001L 67.75 11.44ZM 54.25 80.440002L 36.25 80.440002C 38.826332 76.930664 40.383564 72.778046 40.75 68.440002L 49.75 68.440002C 50.134525 72.773956 51.689987 76.92186 54.25 80.440002ZM 31.809999 80.559998L 60.25 80.440002M 13.75 59.439999L 76.75 59.439999M 76.75 35.439999L 76.75 64C 76.75 66.485283 74.735283 68.5 72.25 68.5L 18.25 68.5C 15.764719 68.5 13.75 66.485283 13.75 64L 13.75 25C 13.75 22.514719 15.764719 20.5 18.25 20.5L 46.510002 20.5M 34.75 42.939999C 34.750004 48.738991 39.451012 53.440002 45.250004 53.440002C 51.048988 53.440002 55.750004 48.738991 55.750004 42.940002C 55.750004 37.14101 51.048988 32.440002 45.250004 32.440002C 39.451012 32.440002 34.750004 37.14101 34.750004 42.940002"></path></g></g></g><g id="g-root-ic_1_6hnijlpf7d3-stroke" data-item-order="0" transform="translate(368, 194)"><g id="ic_1_6hnijlpf7d3-stroke" fill="none" stroke-linecap="round" stroke-linejoin="round" stroke-miterlimit="4" stroke="#ffffff" stroke-width="2"><g><path d="M 13.567 22.75L 39.067001 22.75C 39.067001 22.75 40.567001 22.75 40.567001 24.25L 40.567001 43.75C 40.567001 43.75 40.567001 45.25 39.067001 45.25L 13.567 45.25C 13.567 45.25 12.067 45.25 12.067 43.75L 12.067 24.25C 12.067 24.25 12.067 22.75 13.567 22.75M 19.566999 19.75L 19.566999 17.5C 19.567001 13.772079 22.589077 10.75 26.317001 10.75C 30.044922 10.75 33.067001 13.772079 33.067001 17.5L 33.067001 19.75M 40.312 12.325C 40.897751 11.739427 41.847252 11.739427 42.432999 12.325L 43.4935 13.387C 44.079071 13.97275 44.079071 14.92225 43.4935 15.507999L 39.691002 19.310499C 39.40976 19.591824 39.028294 19.749914 38.630501 19.75L 36.067001 19.75L 36.067001 17.189501C 36.067085 16.791708 36.225174 16.41024 36.5065 16.129Z"></path></g></g></g><g id="g-root-ic_outl_1lz9kjvlpi0pb-stroke" data-item-order="0" transform="translate(194, 367)"><g id="ic_outl_1lz9kjvlpi0pb-stroke" fill="none" stroke-linecap="round" stroke-linejoin="round" stroke-miterlimit="4" stroke="#ffffff" stroke-width="2"><g><path d="M 43.75 29.26L 43.75 14.125C 43.75 13.296573 43.078426 12.625 42.25 12.625L 22.75 12.625C 21.921574 12.625 21.25 13.296573 21.25 14.125L 21.25 19.375M 19.75 37.375L 19.75 41.875C 19.75 42.703426 20.421574 43.375 21.25 43.375L 43.75 43.375C 44.578426 43.375 45.25 42.703426 45.25 41.875L 45.25 28.375M 12.25 19.375L 27.25 19.375C 27.25 19.375 28.75 19.375 28.75 20.875L 28.75 35.875C 28.75 35.875 28.75 37.375 27.25 37.375L 12.25 37.375C 12.25 37.375 10.75 37.375 10.75 35.875L 10.75 20.875C 10.75 20.875 10.75 19.375 12.25 19.375M 16 28.375C 16 30.860283 17.678932 32.875 19.75 32.875C 21.821068 32.875 23.5 30.860283 23.5 28.375C 23.5 25.889719 21.821068 23.875 19.75 23.875C 17.678932 23.875 16 25.889719 16 28.375M 44.68 43.045002L 28.75 33.669998M 32.5 35.875L 45.25 28.375M 43.75 28.375L 28.75 28.375M 43.75 22L 28.75 22M 43.75 15.625L 21.25 15.625M 36.25 15.625L 36.25 28.375M 28.75 15.625L 28.75 21.625"></path></g></g></g><g id="g-root-ic_1_dcbw3vlpi138-stroke" data-item-order="0" transform="translate(542, 368)"><g id="ic_1_dcbw3vlpi138-stroke" fill="none" stroke-linecap="round" stroke-linejoin="round" stroke-miterlimit="4" stroke="#ffffff" stroke-width="2"><g><path d="M 10 10M 33.549999 43.449997L 28.547501 44.879501C 28.285671 44.954208 28.003918 44.881145 27.811386 44.688614C 27.618856 44.496082 27.545792 44.214329 27.620499 43.952499L 29.049999 38.949997L 39.689499 28.310499C 40.849022 27.095037 42.736568 26.944576 44.074001 27.961002C 44.773357 28.529133 45.199158 29.367056 45.245762 30.26689C 45.292374 31.166725 44.955418 32.044155 44.318501 32.681499ZM 10 10M 38.468498 29.5315L 42.968498 34.031502M 10 10M 29.049999 38.949997L 33.549999 43.449997M 25.75 36.25L 10.75 36.25C 10.749032 31.496784 13.941286 27.335749 18.53256 26.105598C 23.123833 24.875448 27.968861 26.883038 30.344501 31.000002M 15.757 13.888C 17.751062 15.957517 20.501619 17.126192 23.3755 17.125C 24.816689 17.126207 26.242905 16.832695 27.5665 16.262499M 14.875 17.125C 14.875 20.645815 17.729185 23.5 21.25 23.5C 24.770815 23.5 27.625 20.645815 27.625 17.125C 27.625 13.604185 24.770815 10.75 21.25 10.75C 17.729185 10.75 14.875 13.604185 14.875 17.125Z"></path></g></g></g><g id="g-root-tx_gestiond_1hckuh7lpkum9-stroke" data-item-order="0" transform="translate(350, 614)"></g><g id="g-root-tx_dveloppe_qva3ijlpku13-stroke" data-item-order="0" transform="translate(122, 194)"></g><g id="g-root-tx_gestiond_1cwrccrlpjh8p-stroke" data-item-order="0" transform="translate(338, 98)"></g><g id="g-root-ic_5_5v6fflpi22u-stroke" data-item-order="0" transform="translate(245, 491)"><g id="ic_5_5v6fflpi22u-stroke" fill="none" stroke-linecap="round" stroke-linejoin="round" stroke-miterlimit="4" stroke="#ffffff" stroke-width="2"><g><path d="M 16.75 34.045002C 16.75 40.258205 21.786797 45.295002 28.000002 45.295002C 34.213203 45.295002 39.25 40.258205 39.25 34.045002C 39.25 27.831799 34.213203 22.795002 28.000002 22.795002C 21.786797 22.795002 16.75 27.831799 16.75 34.045002ZM 25.75 34.045002C 25.75 35.28764 26.75736 36.295002 28 36.295002C 29.242641 36.295002 30.25 35.28764 30.25 34.045002C 30.25 32.802361 29.242641 31.795002 28 31.795002C 26.75736 31.795002 25.75 32.802361 25.75 34.045002ZM 36.25 26.4055L 36.25 19.045C 36.25 14.488651 32.556351 10.795 28 10.795C 23.443651 10.795 19.75 14.488651 19.75 19.045L 19.75 26.4055"></path></g></g></g><g id="g-root-ic_book_3zr63lpi32l-stroke" data-item-order="0" transform="translate(491, 491)"><g id="ic_book_3zr63lpi32l-stroke" fill="none" stroke-linecap="round" stroke-linejoin="round" stroke-miterlimit="4" stroke="#ffffff" stroke-width="2"><g><path d="M 21.903999 20.723499C 21.903517 22.723663 23.524836 24.345375 25.525 24.345375C 27.525166 24.345375 29.146484 22.723663 29.146 20.723499C 29.146484 18.723335 27.525166 17.101625 25.525 17.101625C 23.524836 17.101625 21.903517 18.723335 21.903999 20.723499M 23.713001 30.683498L 19.186001 30.683498C 19.188393 28.67955 20.137329 26.79451 21.745581 25.598955C 23.353832 24.403402 25.432354 24.037868 27.351999 24.613001M 22.2535 39.116501L 13.820499 39.116501C 13.006567 39.117695 12.225561 38.795197 11.649601 38.220081C 11.073641 37.644966 10.749999 36.864433 10.75 36.050499L 10.75 13.816C 10.749999 13.002066 11.073641 12.221534 11.649601 11.646418C 12.225561 11.071301 13.006567 10.748805 13.820499 10.75L 32.219498 10.75C 33.913048 10.75 35.286171 12.122453 35.286999 13.816L 35.286999 19.949499M 15.3535 10.75L 15.3535 39.116501M 33.748001 34.900002C 33.748001 36.169979 34.777523 37.199501 36.047501 37.199501C 37.317478 37.199501 38.347 36.169979 38.347 34.900002C 38.347 33.63002 37.317478 32.600502 36.047501 32.600502C 34.777523 32.600502 33.748001 33.63002 33.748001 34.900002M 38.0005 26.002001L 38.678497 28.2295C 38.907471 28.999609 39.695438 29.459255 40.4785 29.279499L 42.736 28.756001C 43.614166 28.558781 44.518345 28.956833 44.965927 29.737688C 45.413506 30.518543 45.300003 31.499924 44.686001 32.158001L 43.109501 33.849998C 42.565163 34.439568 42.565163 35.348431 43.109501 35.938L 44.688999 37.641998C 45.303001 38.300079 45.416504 39.28146 44.968925 40.062313C 44.521347 40.84317 43.617165 41.241219 42.738998 41.044003L 40.481499 40.5205C 39.698441 40.340744 38.910469 40.800392 38.681499 41.570499L 38.003502 43.798C 37.744396 44.660526 36.950352 45.251091 36.049747 45.251091C 35.149147 45.251091 34.355103 44.660526 34.096001 43.798L 33.417999 41.570503C 33.189659 40.7999 32.40118 40.339954 31.618 40.520504L 29.359001 41.043999C 28.481478 41.238903 27.579185 40.840416 27.132166 40.060539C 26.685146 39.280663 26.797318 38.300694 27.408998 37.641998L 28.984001 35.949997C 29.529789 35.361 29.529789 34.451004 28.984001 33.862L 27.400002 32.152C 26.788317 31.493305 26.676147 30.513334 27.123167 29.733458C 27.570187 28.953583 28.472477 28.555092 29.349998 28.749998L 31.609001 29.2735C 32.392181 29.454048 33.18066 28.994104 33.409 28.223501L 34.087002 25.995998C 34.344082 25.128805 35.141495 24.534435 36.04599 24.53582C 36.950489 24.537209 37.746078 25.13402 38.0005 26.002001Z"></path></g></g></g><g id="g-root-tx_renforce_1ltnarvlpkw03-stroke" data-item-order="0" transform="translate(110, 522)"></g><g id="g-root-tx_amliorat_143m8gblpf8xy-stroke" data-item-order="0" transform="translate(332, 38)"></g><g id="g-root-tx_supporte_8wnflpkwlr-stroke" data-item-order="0" transform="translate(554, 522)"></g><g id="g-root-ic_onli_hrj0azlozrbd-stroke" data-item-order="0" transform="translate(368, 542)"><g id="ic_onli_hrj0azlozrbd-stroke" fill="none" stroke-linecap="round" stroke-linejoin="round" stroke-miterlimit="4" stroke="#ffffff" stroke-width="2"><g><path d="M 33.566502 34.943501C 33.566498 36.208508 34.591991 37.234001 35.856998 37.234001C 37.122009 37.234001 38.147499 36.208508 38.147499 34.943501C 38.147499 33.67849 37.122009 32.653 35.856998 32.653C 34.591991 32.653 33.566498 33.67849 33.566498 34.943501M 37.802498 26.083L 38.477501 28.299999C 38.70694 29.064713 39.490463 29.520126 40.268497 29.341L 42.518501 28.819C 43.393669 28.619684 44.29649 29.014488 44.744331 29.792358C 45.192177 30.570229 45.080296 31.549227 44.468498 32.206001L 42.895 33.9025C 42.351665 34.489578 42.351665 35.39592 42.895 35.983002L 44.468498 37.679497C 45.080296 38.336273 45.192177 39.315273 44.744331 40.093143C 44.29649 40.871014 43.393669 41.265816 42.518501 41.066502L 40.268501 40.546001C 39.490902 40.366741 38.707565 40.821392 38.477501 41.585499L 37.802498 43.804001C 37.543182 44.661575 36.752926 45.248207 35.857002 45.248207C 34.961075 45.248207 34.170818 44.661575 33.911499 43.804001L 33.235001 41.585499C 33.004936 40.821392 32.2216 40.366741 31.444 40.546001L 29.194 41.066502C 28.318192 41.268169 27.413448 40.873814 26.965031 40.094948C 26.516613 39.316082 26.629848 38.335648 27.243999 37.679497L 28.817501 35.983002C 29.360836 35.39592 29.360836 34.489578 28.817501 33.9025L 27.25 32.200001C 26.635847 31.543854 26.522612 30.563416 26.971031 29.78455C 27.419447 29.005684 28.324192 28.611328 29.199999 28.813L 31.450001 29.335001C 32.224297 29.511106 33.003189 29.059481 33.235001 28.299999L 33.911499 26.083C 34.169052 25.22366 34.959892 24.635086 35.857002 24.635086C 36.754105 24.635086 37.544949 25.22366 37.802498 26.083ZM 22.2745 45.107502L 23.419001 38.236M 18.838001 45.107502L 29.527 45.107502M 23.4505 38.236L 15.4 38.236C 12.871155 38.234344 10.822 36.183846 10.822 33.654999L 10.822 15.330999C 10.822 12.802155 12.871155 10.751657 15.4 10.75L 40.599998 10.75C 43.130016 10.75 45.181 12.800983 45.181 15.330999L 45.181 24.1105M 22.846001 17.105499L 19.591 21.445C 19.391697 21.710087 19.087328 21.875832 18.756517 21.89942C 18.425705 21.923008 18.100899 21.802126 17.865999 21.568001L 16.098999 19.801001M 22.846001 25.885L 19.591 30.224499C 19.392298 30.490459 19.087778 30.656885 18.75663 30.680496C 18.425482 30.704109 18.10043 30.582575 17.866001 30.3475L 16.098999 28.581999M 29.527 18.765999L 37.925499 18.765999"></path></g></g></g><g id="g-root-tx_personna_hzn39nlpjhfp-stroke" data-item-order="0" transform="translate(614, 359)"></g></g></g><path id="wdil5zvhtcglm" d="M65.283 12.757a.35.35 0 0 0 .584.157l5.203-5.141-6.183 3.523.396 1.461zm-2.216-11.7a.35.35 0 0 0-.522.305v3.111l3.276-1.868-2.754-1.548zm3.728 2.105l-4.25 2.421v2.445l6.391-3.644-2.141-1.222zm4.708 3.303a.35.35 0 0 0 0-.609l-1.592-.9-7.365 4.199v1.782a.35.35 0 0 0 .523.305l8.435-4.777z M44.542 2.513c0-.433.355-.783.792-.783s.792.35.792.783-.355.783-.792.783-.792-.35-.792-.783zm59.171 0c0-.433.355-.783.792-.783s.792.35.792.783-.355.783-.792.783-.792-.35-.792-.783zm-85.951 7.636h-1.27v-.487c-.276.201-.864.609-1.881.609-1.202 0-2.274-.794-2.137-2.078.118-1.106 1.153-1.584 1.848-1.727l2.17-.345c0-.539-.29-.956-1.064-1.006s-1.21.305-1.571 1.017l-1.124-.605c1.218-2.631 5.029-1.764 5.029.414v4.207zm-1.27-2.86c.006.396-.062 1.112-.819 1.59-.587.37-1.841.299-1.903-.395-.049-.555.461-.791.906-.898l1.816-.297zm72.662 2.86h-1.27v-.487c-.276.201-.864.609-1.881.609-1.202 0-2.274-.794-2.137-2.078.118-1.106 1.153-1.584 1.848-1.727l2.17-.345c0-.539-.29-.956-1.064-1.006s-1.21.305-1.571 1.017l-1.124-.605c1.218-2.631 5.029-1.764 5.029.414v4.207zm-1.27-2.86c.006.396-.062 1.112-.82 1.59-.587.37-1.841.299-1.903-.395-.049-.555.461-.791.906-.898l1.816-.297zM99.096 10.149H97.85v-8.45h1.246v4.895l2.68-2.559h1.738l-2.633 2.535 2.715 3.578h-1.556l-2.077-2.707-.867.844v1.863zm6.053-6.114h-1.255v6.113h1.255V4.035zm-59.2 0h-1.255v6.113h1.255V4.035zm5.584 6.113V1.697h1.255v2.695c.361-.346 1-.485 1.47-.485 1.452 0 2.477 1.082 2.457 2.448v3.792h-1.27v-3.68c0-.408-.214-1.339-1.315-1.339-.968 0-1.342.756-1.342 1.339v3.681h-1.255zm-4.76-4.894V4.039h.621a.45.45 0 0 0 .45-.45v-.855h1.251v1.305h1.309v1.215h-1.309v3.109c0 .293.105.664.648.664.365 0 .531-.035.736-.07v1.137s-.361.113-.857.113c-1.398 0-1.777-1.051-1.777-1.788V5.254h-1.071zM36.528 4.039h-1.394l2.191 6.106h1.125l1.234-3.918 1.238 3.918h1.129l2.188-6.106h-1.383l-1.359 3.93-1.256-3.93h-1.124l-1.242 3.957-1.348-3.957zM26.212 7.141c-.02 1.566 1.187 3.129 3.223 3.129 1.566 0 2.383-.918 2.734-1.719L31.172 8c-.315.399-.801 1.094-1.738 1.094-1.145 0-1.825-.781-1.891-1.52h4.625c.074-.284.148-.995-.03-1.559-.336-1.064-1.221-2.102-2.839-2.102s-3.088 1.152-3.088 3.227zm1.363-.75h3.348c-.055-.43-.566-1.301-1.623-1.301a1.79 1.79 0 0 0-1.725 1.301zm-8.758.75c.038 1.758 1.277 3.133 3.145 3.133 1.074 0 1.723-.477 1.961-.672v.547h1.242V1.703h-1.258v2.888c-.414-.36-1.062-.68-1.93-.68-1.91 0-3.198 1.473-3.16 3.23zm1.309-.08c0 1.119.723 1.978 1.836 1.978a1.88 1.88 0 0 0 1.94-1.904c0-1.371-1.011-1.99-1.972-1.99s-1.805.798-1.805 1.916zm76.683-.028C96.771 5.275 95.532 3.9 93.664 3.9c-1.074 0-1.723.477-1.961.672v-.547h-1.242v8.22h1.258V9.583c.414.36 1.063.68 1.93.68 1.91 0 3.198-1.473 3.16-3.23zm-1.309.08c0-1.119-.723-1.978-1.836-1.978a1.88 1.88 0 0 0-1.94 1.904c0 1.371 1.011 1.99 1.972 1.99S95.5 8.231 95.5 7.113zM106.441 10.173V4.036h1.254v.382c.361-.346 1-.485 1.47-.485 1.452 0 2.477 1.082 2.457 2.448v3.792h-1.27V6.492c0-.408-.214-1.339-1.315-1.339-.969 0-1.342.756-1.342 1.339v3.681h-1.254zm-30.383-.021V1.824h1.084l4.215 5.777V1.824h1.32v8.328h-1.094l-4.207-5.796v5.796h-1.319zM5.24 10.149H4V2.377h1.014l2.664 3.597 2.654-3.592h1.03v7.766h-1.256V4.762L7.678 8.068 5.24 4.742v5.407z" transform="translate(656, 740)" fill="#80808088" stroke="none"></path></svg>